<svg width="180" height="180" viewBox="0 0 180 180" fill="none" xmlns="http://www.w3.org/2000/svg">
  <defs>
    <!-- 霓虹渐变 -->
    <linearGradient id="neon-blue" x1="0" y1="0" x2="1" y2="1">
      <stop offset="0%" stop-color="#00f2ea"/>
      <stop offset="100%" stop-color="#1a1aff"/>
    </linearGradient>
    <linearGradient id="neon-pink" x1="1" y1="0" x2="0" y2="1">
      <stop offset="0%" stop-color="#ff0050"/>
      <stop offset="100%" stop-color="#fff"/>
    </linearGradient>
    <radialGradient id="star-glow" cx="0.5" cy="0.5" r="0.5">
      <stop offset="0%" stop-color="#fff" stop-opacity="0.9"/>
      <stop offset="100%" stop-color="#00f2ea" stop-opacity="0"/>
    </radialGradient>
    <radialGradient id="bg" cx="0.5" cy="0.5" r="0.5">
      <stop offset="0%" stop-color="#181824"/>
      <stop offset="100%" stop-color="#0a0a13"/>
    </radialGradient>
    <linearGradient id="star-grad1" x1="0" y1="0" x2="1" y2="1">
      <stop offset="0%" stop-color="#fffbe7"/>
      <stop offset="100%" stop-color="#ffe066"/>
    </linearGradient>
    <linearGradient id="star-grad2" x1="0" y1="0" x2="1" y2="1">
      <stop offset="0%" stop-color="#00f2ea"/>
      <stop offset="100%" stop-color="#a18fff"/>
    </linearGradient>
    <linearGradient id="star-grad3" x1="0" y1="0" x2="1" y2="1">
      <stop offset="0%" stop-color="#ff0050"/>
      <stop offset="100%" stop-color="#fff"/>
    </linearGradient>
    <filter id="star-glow-filter" x="-50%" y="-50%" width="200%" height="200%">
      <feGaussianBlur stdDeviation="1.2" result="coloredBlur"/>
      <feMerge>
        <feMergeNode in="coloredBlur"/>
        <feMergeNode in="SourceGraphic"/>
      </feMerge>
    </filter>
  </defs>
  <!-- 深色背景 -->
  <circle cx="90" cy="90" r="88" fill="url(#bg)"/>
  <!-- 星星主体：青蓝重影 -->
  <g>
    <!-- 蓝色重影 -->
    <polygon points="90,45 99,75 132,75 105,93 114,125 90,107 66,125 75,93 48,75 81,75" fill="url(#neon-blue)" opacity="0.7" transform="translate(5,5)" filter="url(#shadow)"/>
    <!-- 粉色重影 -->
    <polygon points="90,45 99,75 132,75 105,93 114,125 90,107 66,125 75,93 48,75 81,75" fill="url(#neon-pink)" opacity="0.7" transform="translate(-5,-5)"/>
    <!-- 白色主星 -->
    <polygon points="90,45 99,75 132,75 105,93 114,125 90,107 66,125 75,93 48,75 81,75" fill="#fff" filter="url(#glow)"/>
    <!-- 星星发光 -->
    <circle cx="90" cy="90" r="28" fill="url(#star-glow)" opacity="0.7"/>
  </g>
  <!-- 点缀星星（多样化分布、渐变、发光、旋转） -->
  <g>
    <polygon points="40,58 41.2,61.2 44.7,61.2 41.9,63.1 43,66.3 40,64.2 37,66.3 38.1,63.1 35.3,61.2 38.8,61.2" fill="url(#star-grad1)" opacity="0.85" filter="url(#star-glow-filter)"/>
    <polygon points="140,118 141.1,120.7 143.7,120.7 141.5,122.2 142.3,124.9 140,123.2 137.7,124.9 138.5,122.2 136.3,120.7 138.9,120.7" fill="url(#star-grad2)" opacity="0.8" filter="url(#star-glow-filter)"/>
    <polygon points="120,38 120.7,39.8 122.3,39.8 121,40.8 121.5,42.6 120,41.6 118.5,42.6 119,40.8 117.7,39.8 119.3,39.8" fill="url(#star-grad3)" opacity="0.7" filter="url(#star-glow-filter)"/>
    <polygon points="60,138 61,140.5 63.5,140.5 61.5,142 62.2,144.5 60,143 57.8,144.5 58.5,142 56.5,140.5 59,140.5" fill="url(#star-grad1)" opacity="0.7" filter="url(#star-glow-filter)"/>
    <polygon points="110,148.5 110.7,150.2 112.3,150.2 111,151.2 111.5,153 110,152 108.5,153 109,151.2 107.7,150.2 109.3,150.2" fill="url(#star-grad2)" opacity="0.6" filter="url(#star-glow-filter)"/>
    <polygon points="50,108.5 50.6,110.1 52.1,110.1 50.9,111 51.3,112.6 50,111.7 48.7,112.6 49.1,111 47.9,110.1 49.4,110.1" fill="url(#star-grad3)" opacity="0.6" filter="url(#star-glow-filter)"/>
    <polygon points="30,80 31,82.5 33.5,82.5 31.5,84 32.2,86.5 30,85 27.8,86.5 28.5,84 26.5,82.5 29,82.5" fill="url(#star-grad2)" opacity="0.5" filter="url(#star-glow-filter)"/>
    <polygon points="160,60 161,62.5 163.5,62.5 161.5,64 162.2,66.5 160,65 157.8,66.5 158.5,64 156.5,62.5 159,62.5" fill="url(#star-grad1)" opacity="0.5" filter="url(#star-glow-filter)"/>
    <polygon points="80,160 81,162.5 83.5,162.5 81.5,164 82.2,166.5 80,165 77.8,166.5 78.5,164 76.5,162.5 79,162.5" fill="url(#star-grad3)" opacity="0.4" filter="url(#star-glow-filter)"/>
    <polygon points="100,20 101,22.5 103.5,22.5 101.5,24 102.2,26.5 100,25 97.8,26.5 98.5,24 96.5,22.5 99,22.5" fill="url(#star-grad2)" opacity="0.4" filter="url(#star-glow-filter)"/>
    <polygon points="120,160 121,162.5 123.5,162.5 121.5,164 122.2,166.5 120,165 117.8,166.5 118.5,164 116.5,162.5 119,162.5" fill="url(#star-grad1)" opacity="0.4" filter="url(#star-glow-filter)"/>
    <polygon points="40,100 41,102.5 43.5,102.5 41.5,104 42.2,106.5 40,105 37.8,106.5 38.5,104 36.5,102.5 39,102.5" fill="url(#star-grad3)" opacity="0.3" filter="url(#star-glow-filter)"/>
    <polygon points="150,40 151,42.5 153.5,42.5 151.5,44 152.2,46.5 150,45 147.8,46.5 148.5,44 146.5,42.5 149,42.5" fill="url(#star-grad2)" opacity="0.3" filter="url(#star-glow-filter)"/>
    <polygon points="60,20 61,22.5 63.5,22.5 61.5,24 62.2,26.5 60,25 57.8,26.5 58.5,24 56.5,22.5 59,22.5" fill="url(#star-grad1)" opacity="0.2" filter="url(#star-glow-filter)"/>
    <polygon points="20,60 21,62.5 23.5,62.5 21.5,64 22.2,66.5 20,65 17.8,66.5 18.5,64 16.5,62.5 19,62.5" fill="url(#star-grad3)" opacity="0.2" filter="url(#star-glow-filter)"/>
    <polygon points="100,140 101,142.5 103.5,142.5 101.5,144 102.2,146.5 100,145 97.8,146.5 98.5,144 96.5,142.5 99,142.5" fill="url(#star-grad2)" opacity="0.18" filter="url(#star-glow-filter)"/>
    <polygon points="30,110 31,112.5 33.5,112.5 31.5,114 32.2,116.5 30,115 27.8,116.5 28.5,114 26.5,112.5 29,112.5" fill="url(#star-grad1)" opacity="0.13" filter="url(#star-glow-filter)"/>
    <polygon points="110,30 111,32.5 113.5,32.5 111.5,34 112.2,36.5 110,35 107.8,36.5 108.5,34 106.5,32.5 109,32.5" fill="url(#star-grad3)" opacity="0.13" filter="url(#star-glow-filter)"/>
    <polygon points="150,80 151,82.5 153.5,82.5 151.5,84 152.2,86.5 150,85 147.8,86.5 148.5,84 146.5,82.5 149,82.5" fill="url(#star-grad2)" opacity="0.09" filter="url(#star-glow-filter)"/>
    <polygon points="80,30 81,32.5 83.5,32.5 81.5,34 82.2,36.5 80,35 77.8,36.5 78.5,34 76.5,32.5 79,32.5" fill="url(#star-grad1)" opacity="0.09" filter="url(#star-glow-filter)"/>
    <!-- 新增更多星星，带旋转和不同大小 -->
    <polygon points="70,50 71,52.5 73.5,52.5 71.5,54 72.2,56.5 70,55 67.8,56.5 68.5,54 66.5,52.5 69,52.5" fill="url(#star-grad2)" opacity="0.7" filter="url(#star-glow-filter)" transform="rotate(15 70 53) scale(0.8)"/>
    <polygon points="100,100 101,102.5 103.5,102.5 101.5,104 102.2,106.5 100,105 97.8,106.5 98.5,104 96.5,102.5 99,102.5" fill="url(#star-grad1)" opacity="0.5" filter="url(#star-glow-filter)" transform="rotate(-10 100 104) scale(0.7)"/>
    <polygon points="150,100 151,102.5 153.5,102.5 151.5,104 152.2,106.5 150,105 147.8,106.5 148.5,104 146.5,102.5 149,102.5" fill="url(#star-grad3)" opacity="0.4" filter="url(#star-glow-filter)" transform="rotate(25 150 105) scale(0.6)"/>
    <polygon points="80,80 81,82.5 83.5,82.5 81.5,84 82.2,86.5 80,85 77.8,86.5 78.5,84 76.5,82.5 79,82.5" fill="url(#star-grad2)" opacity="0.6" filter="url(#star-glow-filter)" transform="rotate(-20 80 85) scale(0.5)"/>
    <polygon points="60,120 61,122.5 63.5,122.5 61.5,124 62.2,126.5 60,125 57.8,126.5 58.5,124 56.5,122.5 59,122.5" fill="url(#star-grad1)" opacity="0.4" filter="url(#star-glow-filter)" transform="rotate(30 60 125) scale(0.6)"/>
    <polygon points="130,60 131,62.5 133.5,62.5 131.5,64 132.2,66.5 130,65 127.8,66.5 128.5,64 126.5,62.5 129,62.5" fill="url(#star-grad3)" opacity="0.5" filter="url(#star-glow-filter)" transform="rotate(-25 130 65) scale(0.7)"/>
    <polygon points="40,150 41,152.5 43.5,152.5 41.5,154 42.2,156.5 40,155 37.8,156.5 38.5,154 36.5,152.5 39,152.5" fill="url(#star-grad2)" opacity="0.3" filter="url(#star-glow-filter)" transform="rotate(10 40 155) scale(0.5)"/>
    <polygon points="160,140 161,142.5 163.5,142.5 161.5,144 162.2,146.5 160,145 157.8,146.5 158.5,144 156.5,142.5 159,142.5" fill="url(#star-grad1)" opacity="0.3" filter="url(#star-glow-filter)" transform="rotate(-15 160 145) scale(0.5)"/>
    <polygon points="20,120 21,122.5 23.5,122.5 21.5,124 22.2,126.5 20,125 17.8,126.5 18.5,124 16.5,122.5 19,122.5" fill="url(#star-grad3)" opacity="0.2" filter="url(#star-glow-filter)" transform="rotate(5 20 125) scale(0.4)"/>
    <polygon points="170,30 171,32.5 173.5,32.5 171.5,34 172.2,36.5 170,35 167.8,36.5 168.5,34 166.5,32.5 169,32.5" fill="url(#star-grad2)" opacity="0.2" filter="url(#star-glow-filter)" transform="rotate(-5 170 35) scale(0.4)"/>
  </g>
  <filter id="glow" x="-20%" y="-20%" width="140%" height="140%">
    <feGaussianBlur stdDeviation="3" result="coloredBlur"/>
    <feMerge>
      <feMergeNode in="coloredBlur"/>
      <feMergeNode in="SourceGraphic"/>
    </feMerge>
  </filter>
  <filter id="shadow" x="-20%" y="-20%" width="140%" height="140%">
    <feDropShadow dx="0" dy="0" stdDeviation="4" flood-color="#00f2ea" flood-opacity="0.7"/>
  </filter>
</svg> 